<svg width="48" height="48" viewBox="0 0 48 48" fill="none" xmlns="http://www.w3.org/2000/svg">
<path d="M44.5945 35.3593C37.1614 31.76 35.9767 26.2028 35.924 25.7906C35.8602 25.2914 35.7879 24.8988 36.3385 24.3909C36.8695 23.9002 39.2254 22.4416 39.8791 21.9853C40.9595 21.2296 41.4354 20.4751 41.0846 19.5477C40.8393 18.9061 40.2421 18.6645 39.6129 18.6645C39.4145 18.6651 39.2167 18.6873 39.0231 18.7307C37.8359 18.9883 36.6831 19.5833 36.016 19.744C35.9358 19.7647 35.8535 19.7758 35.7707 19.7771C35.415 19.7771 35.2801 19.6189 35.3145 19.1907C35.3979 17.8928 35.5745 15.3596 35.3697 12.9932C35.0888 9.73739 34.039 8.12422 32.7943 6.69751C32.1921 6.00562 29.3959 3.0332 23.9999 3.0332C18.6038 3.0332 15.8113 6.00562 15.2128 6.68892C13.9644 8.11563 12.9158 9.72881 12.6374 12.9846C12.4326 15.351 12.6166 17.883 12.6926 19.1821C12.7171 19.5894 12.592 19.7685 12.2364 19.7685C12.1536 19.7671 12.0713 19.756 11.9911 19.7354C11.3252 19.5747 10.1724 18.9797 8.98524 18.7221C8.79159 18.6787 8.5938 18.6565 8.39535 18.6559C7.76376 18.6559 7.16896 18.9012 6.92369 19.5391C6.57294 20.4666 7.04632 21.221 8.13045 21.9767C8.78411 22.433 11.14 23.8904 11.671 24.3823C12.2204 24.8902 12.1493 25.2828 12.0855 25.7821C12.0328 26.2004 10.8469 31.7576 3.415 35.3507C2.97964 35.5617 2.2389 36.0083 3.545 36.7296C5.59551 37.8631 6.96048 37.7416 8.0213 38.4249C8.92147 39.0052 8.38922 40.2565 9.04411 40.7079C9.84861 41.2636 12.2266 40.6687 15.2987 41.6832C17.8741 42.5321 19.4389 44.9304 24.006 44.9304C28.573 44.9304 30.1833 42.5211 32.7133 41.6832C35.7793 40.6687 38.1621 41.2636 38.9679 40.7079C39.6215 40.2565 39.0905 39.0052 39.9907 38.4249C41.0515 37.7416 42.4152 37.8631 44.467 36.7296C45.7706 36.0168 45.0299 35.5703 44.5945 35.3593Z" fill="white"/>
<path d="M47.8285 34.9371C47.4949 34.0293 46.8597 33.5435 46.1361 33.1411C46 33.0614 45.8749 32.9976 45.7682 32.9485C45.5524 32.8369 45.3316 32.7289 45.1121 32.6149C42.8568 31.4188 41.0957 29.9099 39.8742 28.1213C39.5273 27.6177 39.2265 27.084 38.9753 26.5265C38.871 26.2284 38.8759 26.0591 38.9507 25.9045C39.0249 25.7854 39.1231 25.6831 39.2389 25.604C39.6265 25.3476 40.0263 25.0875 40.2973 24.9121C40.7805 24.5993 41.1631 24.3515 41.4096 24.176C42.3355 23.5283 42.9831 22.8401 43.3878 22.0709C43.6702 21.5395 43.8348 20.9535 43.8706 20.3528C43.9063 19.752 43.8124 19.1506 43.595 18.5894C42.9818 16.975 41.4575 15.9728 39.6105 15.9728C39.221 15.9724 38.8325 16.0135 38.4516 16.0954C38.3498 16.1175 38.248 16.1408 38.1487 16.1666C38.1658 15.0625 38.1413 13.8971 38.0432 12.7501C37.6949 8.71776 36.2833 6.60407 34.8117 4.91852C33.8693 3.86227 32.7592 2.96867 31.5262 2.27364C29.293 0.997822 26.7605 0.350098 23.9999 0.350098C21.2393 0.350098 18.7191 0.997822 16.4834 2.27364C15.2473 2.96888 14.135 3.86428 13.1918 4.92342C11.7201 6.60898 10.3085 8.72635 9.96024 12.755C9.86213 13.902 9.8376 15.0736 9.85354 16.1715C9.75421 16.1457 9.65364 16.1224 9.55185 16.1003C9.17099 16.0184 8.78249 15.9773 8.39292 15.9777C6.54476 15.9777 5.01791 16.9799 4.40717 18.5943C4.18887 19.1558 4.09395 19.7576 4.12887 20.359C4.16378 20.9604 4.32772 21.5472 4.60953 22.0795C5.01546 22.8487 5.66299 23.5369 6.58891 24.1846C6.83419 24.3564 7.21804 24.6042 7.70124 24.9207C7.96246 25.09 8.34387 25.3378 8.71791 25.5856C8.84878 25.6702 8.96001 25.7819 9.04413 25.9131C9.12262 26.0738 9.12507 26.2468 9.00857 26.5658C8.76076 27.1115 8.46485 27.6341 8.12434 28.1274C6.92984 29.8755 5.22027 31.3574 3.0373 32.5437C1.88082 33.1571 0.678966 33.5668 0.171243 34.9469C-0.211388 35.9884 0.0387937 37.1735 1.01132 38.172C1.36824 38.5447 1.78222 38.8582 2.2377 39.1007C3.18544 39.6217 4.19321 40.025 5.23866 40.3017C5.4544 40.3573 5.65922 40.449 5.84449 40.5728C6.19892 40.8832 6.14864 41.3505 6.6208 42.0351C6.85781 42.3889 7.15897 42.6951 7.5087 42.938C8.49962 43.6225 9.61317 43.6654 10.793 43.7108C11.8587 43.7513 13.0667 43.7979 14.4464 44.253C15.0178 44.442 15.6114 44.8075 16.2994 45.2344C17.9514 46.2502 20.2128 47.6401 23.9974 47.6401C27.782 47.6401 30.0594 46.2428 31.7236 45.2234C32.4067 44.8039 32.9966 44.442 33.5522 44.2579C34.9319 43.8016 36.1399 43.7562 37.2056 43.7157C38.3854 43.6703 39.4989 43.6274 40.4898 42.9429C40.904 42.654 41.2491 42.2769 41.5004 41.8388C41.8401 41.261 41.8315 40.8574 42.1504 40.5752C42.3242 40.4574 42.5165 40.3694 42.7194 40.3152C43.7791 40.0376 44.8006 39.6306 45.7608 39.1031C46.2448 38.8435 46.6804 38.5023 47.0485 38.0948L47.0608 38.08C47.9732 37.1035 48.2026 35.9529 47.8285 34.9371ZM44.4646 36.7453C42.4128 37.8788 41.0491 37.7574 39.9882 38.4407C39.0869 39.021 39.6203 40.2722 38.9654 40.7237C38.1609 41.2794 35.783 40.6844 32.7109 41.699C30.1772 42.5368 28.5608 44.9462 24.0036 44.9462C19.4463 44.9462 17.868 42.5417 15.2926 41.6928C12.2266 40.6783 9.84373 41.2733 9.038 40.7175C8.38434 40.2661 8.91536 39.0148 8.01519 38.4346C6.95315 37.7513 5.58941 37.8727 3.53889 36.7453C2.2328 36.024 2.97353 35.5775 3.4089 35.3665C10.8408 31.7672 12.0267 26.21 12.0794 25.7978C12.1432 25.2985 12.2143 24.906 11.6649 24.3981C11.1339 23.9074 8.77801 22.4488 8.12434 21.9924C7.04267 21.2368 6.56683 20.4823 6.91758 19.5549C7.16286 18.9133 7.76133 18.6716 8.38924 18.6716C8.58769 18.6722 8.78549 18.6944 8.97913 18.7379C10.1663 18.9955 11.3191 19.5905 11.985 19.7512C12.0652 19.7717 12.1475 19.7829 12.2303 19.7843C12.5859 19.7843 12.711 19.6052 12.6865 19.1979C12.6105 17.8988 12.4265 15.3668 12.6313 13.0003C12.9121 9.74455 13.9607 8.13138 15.2067 6.70467C15.8052 6.01891 18.6173 3.0465 23.995 3.0465C29.3727 3.0465 32.1921 6.00664 32.7906 6.68994C34.0378 8.11665 35.0876 9.72983 35.366 12.9856C35.5708 15.352 35.3942 17.8853 35.3108 19.1832C35.2826 19.6113 35.4114 19.7696 35.767 19.7696C35.8498 19.7682 35.9321 19.7571 36.0123 19.7364C36.6795 19.5757 37.8323 18.9808 39.0194 18.7231C39.2131 18.6797 39.4108 18.6575 39.6093 18.6569C40.2409 18.6569 40.8357 18.9022 41.081 19.5402C41.4317 20.4676 40.9583 21.222 39.8754 21.9777C39.2218 22.4341 36.8659 23.8914 36.3349 24.3834C35.7842 24.8912 35.8566 25.2838 35.9203 25.7831C35.9731 26.2014 37.1578 31.7586 44.5909 35.3517C45.0299 35.5713 45.7706 36.0179 44.4646 36.7453Z" fill="black"/>
</svg>
